<?xml version="1.0" encoding="iso-8859-1"?>
<!-- Generator: Adobe Illustrator 19.1.0, SVG Export Plug-In . SVG Version: 6.00 Build 0)  -->
<svg version="1.1" id="Capa_1" xmlns="http://www.w3.org/2000/svg" xmlns:xlink="http://www.w3.org/1999/xlink" x="0px" y="0px"
	 viewBox="0 0 64.978 64.978" style="enable-background:new 0 0 64.978 64.978;" xml:space="preserve">
<g>
	<g>
		<g id="group-9svg">
			<path id="path-1_51_" d="M35.904,51.564c-0.495,0-0.979-0.245-1.266-0.693c-0.445-0.699-0.24-1.626,0.458-2.071l25.591-16.311
				l-25.591-16.31c-0.698-0.446-0.903-1.373-0.458-2.072c0.446-0.698,1.374-0.902,2.072-0.458l27.575,17.575
				c0.432,0.276,0.693,0.752,0.693,1.265c0,0.513-0.261,0.989-0.693,1.265L36.71,51.329C36.46,51.488,36.18,51.564,35.904,51.564z"
				/>
			<path id="path-2_42_" d="M61.5,32.661h-60c-0.828,0-1.5-0.672-1.5-1.5s0.672-1.5,1.5-1.5h60c0.828,0,1.5,0.672,1.5,1.5
				S62.328,32.661,61.5,32.661z"/>
		</g>
	</g>
	<g>
	</g>
	<g>
	</g>
	<g>
	</g>
	<g>
	</g>
	<g>
	</g>
	<g>
	</g>
	<g>
	</g>
	<g>
	</g>
	<g>
	</g>
	<g>
	</g>
	<g>
	</g>
	<g>
	</g>
	<g>
	</g>
	<g>
	</g>
	<g>
	</g>
</g>
<g>
</g>
<g>
</g>
<g>
</g>
<g>
</g>
<g>
</g>
<g>
</g>
<g>
</g>
<g>
</g>
<g>
</g>
<g>
</g>
<g>
</g>
<g>
</g>
<g>
</g>
<g>
</g>
<g>
</g>
</svg>
